# xmcd CD database file
#
# Track frame offsets:
#	150
#	11716
#	32100
#	44467
#	64322
#	81797
#	98948
#	113010
#	138513
#	150498
#	170794
#	192103
#	210773
#	224841
#
# Disc length: 3282 seconds
#
# Revision: 0
# Processed by: cddbd v1.5.1PL2 Copyright (c) Steve Scherf et al.
# Submitted via: Feurio! 1.66 - http://www.feurio.com
#
DISCID=c50cd00e
DTITLE=Van Morrison - Anthology (1/3)
DYEAR=1900
DGENRE=
TTITLE0=All Saints Day
TTITLE1=And It Stoned Me
TTITLE2=Baby Please Don't Go
TTITLE3=Back on Top
TTITLE4=Be Thou My Vision
TTITLE5=Bright Side Of The Road
TTITLE6=Brown Eyed Girl
TTITLE7=Burning Ground
TTITLE8=By His Grace
TTITLE9=Carrying A Torch
TTITLE10=Cleaning Windows
TTITLE11=Did Ye Get Healed
TTITLE12=Domino
TTITLE13=Dweller On The Threshold
EXTD=
EXTT0=
EXTT1=
EXTT2=
EXTT3=
EXTT4=
EXTT5=
EXTT6=
EXTT7=
EXTT8=
EXTT9=
EXTT10=
EXTT11=
EXTT12=
EXTT13=
PLAYORDER=
